<svg width="16" height="10" viewBox="0 0 16 10" fill="none" xmlns="http://www.w3.org/2000/svg">
<path fill-rule="evenodd" clip-rule="evenodd" d="M8.53033 8.53033C8.23744 8.82322 7.76256 8.82322 7.46967 8.53033L1.46967 2.53033C1.17678 2.23744 1.17678 1.76256 1.46967 1.46967C1.76256 1.17678 2.23744 1.17678 2.53033 1.46967L8 6.93934L13.4697 1.46967C13.7626 1.17678 14.2374 1.17678 14.5303 1.46967C14.8232 1.76256 14.8232 2.23744 14.5303 2.53033L8.53033 8.53033Z" fill="#22282F"/>
<path d="M7.46967 8.53033L7.11612 8.88388V8.88388L7.46967 8.53033ZM8.53033 8.53033L8.88388 8.88388V8.88388L8.53033 8.53033ZM1.46967 2.53033L1.82322 2.17678L1.46967 2.53033ZM1.46967 1.46967L1.82322 1.82322L1.46967 1.46967ZM2.53033 1.46967L2.17678 1.82322L2.53033 1.46967ZM8 6.93934L7.64645 7.29289C7.84171 7.48816 8.15829 7.48816 8.35355 7.29289L8 6.93934ZM13.4697 1.46967L13.1161 1.11612L13.1161 1.11612L13.4697 1.46967ZM14.5303 1.46967L14.8839 1.11612L14.8839 1.11612L14.5303 1.46967ZM14.5303 2.53033L14.8839 2.88388H14.8839L14.5303 2.53033ZM7.11612 8.88388C7.60427 9.37204 8.39573 9.37204 8.88388 8.88388L8.17678 8.17678C8.07915 8.27441 7.92085 8.27441 7.82322 8.17678L7.11612 8.88388ZM1.11612 2.88388L7.11612 8.88388L7.82322 8.17678L1.82322 2.17678L1.11612 2.88388ZM1.11612 1.11612C0.627961 1.60427 0.627961 2.39573 1.11612 2.88388L1.82322 2.17678C1.72559 2.07915 1.72559 1.92085 1.82322 1.82322L1.11612 1.11612ZM2.88388 1.11612C2.39573 0.627961 1.60427 0.627961 1.11612 1.11612L1.82322 1.82322C1.92085 1.72559 2.07915 1.72559 2.17678 1.82322L2.88388 1.11612ZM8.35355 6.58579L2.88388 1.11612L2.17678 1.82322L7.64645 7.29289L8.35355 6.58579ZM13.1161 1.11612L7.64645 6.58579L8.35355 7.29289L13.8232 1.82322L13.1161 1.11612ZM14.8839 1.11612C14.3957 0.627961 13.6043 0.627961 13.1161 1.11612L13.8232 1.82322C13.9209 1.72559 14.0791 1.72559 14.1768 1.82322L14.8839 1.11612ZM14.8839 2.88388C15.372 2.39573 15.372 1.60427 14.8839 1.11612L14.1768 1.82322C14.2744 1.92085 14.2744 2.07915 14.1768 2.17678L14.8839 2.88388ZM8.88388 8.88388L14.8839 2.88388L14.1768 2.17678L8.17678 8.17678L8.88388 8.88388Z" fill="#22282F"/>
</svg>
