<svg width="32" height="32" viewBox="0 0 32 32" fill="none" xmlns="http://www.w3.org/2000/svg">
<path d="M18.1125 12.5125H15.0312V9.43125C15.0312 8.725 14.4625 8.15625 13.7563 8.15625C13.05 8.15625 12.4812 8.725 12.4812 9.43125V12.5125H9.4C8.69375 12.5125 8.125 13.0813 8.125 13.7875C8.125 14.4938 8.69375 15.0625 9.4 15.0625H12.4812V18.1437C12.4812 18.85 13.05 19.4188 13.7563 19.4188C14.4625 19.4188 15.0312 18.85 15.0312 18.1437V15.0625H18.1125C18.8187 15.0625 19.3875 14.4938 19.3875 13.7875C19.3875 13.0813 18.8125 12.5125 18.1125 12.5125Z" fill="white"/>
<path d="M13.7625 24.2932C7.95625 24.2932 3.25 19.5932 3.25 13.7869C3.25 7.98066 7.95625 3.28066 13.7625 3.28066C19.5688 3.28066 24.2687 7.98691 24.2687 13.7869C24.2687 19.5869 19.5625 24.2932 13.7625 24.2932ZM30.9375 29.1682L23.8563 22.0869C25.7125 19.8307 26.8312 16.9369 26.8312 13.7869C26.8312 6.56816 20.9813 0.711914 13.7563 0.711914C6.53125 0.711914 0.6875 6.56816 0.6875 13.7869C0.6875 21.0057 6.5375 26.8619 13.7625 26.8619C16.9125 26.8619 19.8 25.7494 22.0562 23.8932L29.1375 30.9744C29.4625 31.3057 30.4563 31.4682 30.9438 30.9744C31.4375 30.4744 31.4375 29.6682 30.9375 29.1682Z" fill="white"/>
</svg>
