<svg width="48" height="36" viewBox="0 0 48 36" fill="none" xmlns="http://www.w3.org/2000/svg">
<path d="M42.8571 0.857422H5.14285C2.30253 0.857422 0 3.15995 0 6.00028V30.0002C0 32.8405 2.30253 35.1431 5.14285 35.1431H42.8571C45.6975 35.1431 48 32.8405 48 30.0002V6.00028C48 3.15995 45.6975 0.857422 42.8571 0.857422ZM44.5714 30.0002C44.5714 30.947 43.8039 31.7145 42.857 31.7145H5.14285C4.19605 31.7145 3.42854 30.947 3.42854 30.0002V19.7145H44.5714V30.0002ZM44.5714 16.286H3.42854V12.8574H44.5714V16.286ZM44.5714 9.42881H3.42854V6.00028C3.42854 5.05347 4.19605 4.28596 5.14285 4.28596H42.8571C43.804 4.28596 44.5715 5.05347 44.5715 6.00028V9.42881H44.5714Z" fill="white"/>
</svg>
