<svg width="47" height="42" viewBox="0 0 47 42" fill="none" xmlns="http://www.w3.org/2000/svg">
<path d="M45.6317 5.96702C45.6288 5.96702 45.6259 5.96667 45.623 5.96667H33.1387V4.6C33.1387 2.33931 31.2855 0.5 29.0078 0.5H17.9922C15.7145 0.5 13.8613 2.33931 13.8613 4.6V5.96667H1.37695C0.610306 5.96667 0 6.59021 0 7.33333V37.4C0 39.6607 1.85315 41.5 4.13086 41.5H42.8691C45.1469 41.5 47 39.6607 47 37.4V7.36216C47 7.36038 47 7.3586 47 7.35682C46.9473 6.45924 46.3911 5.972 45.6317 5.96702ZM16.6152 4.6C16.6152 3.84655 17.2331 3.23333 17.9922 3.23333H29.0078C29.7669 3.23333 30.3848 3.84655 30.3848 4.6V5.96667H16.6152V4.6ZM43.7125 8.7L39.4364 21.4321C39.2489 21.9912 38.7239 22.3667 38.1305 22.3667H30.3848V21C30.3848 20.2451 29.7684 19.6333 29.0078 19.6333H17.9922C17.2316 19.6333 16.6152 20.2451 16.6152 21V22.3667H8.86951C8.27606 22.3667 7.7511 21.9912 7.56356 21.4321L3.28748 8.7H43.7125ZM27.6309 22.3667V25.1H19.3691V22.3667H27.6309ZM44.2461 37.4C44.2461 38.1534 43.6283 38.7667 42.8691 38.7667H4.13086C3.37174 38.7667 2.75391 38.1534 2.75391 37.4V15.7551L4.95094 22.2966C5.51391 23.9736 7.0888 25.1 8.86951 25.1H16.6152V26.4667C16.6152 27.2215 17.2316 27.8333 17.9922 27.8333H29.0078C29.7684 27.8333 30.3848 27.2215 30.3848 26.4667V25.1H38.1305C39.9112 25.1 41.4861 23.9736 42.0491 22.2966L44.2461 15.7551V37.4Z" fill="white"/>
</svg>
