<svg width="38" height="48" viewBox="0 0 38 48" fill="none" xmlns="http://www.w3.org/2000/svg">
<path d="M32.0237 21.118C30.3523 19.0618 28.4417 17.4236 26.3443 16.2456C26.6878 15.8392 26.9588 15.3626 27.1338 14.8315C27.8207 12.7401 26.8174 10.2557 24.2568 9.44634L27.8464 3.18712C28.2993 2.39719 27.8925 1.39106 27.0192 1.13719C24.4238 0.382594 21.7259 0 19 0C16.2741 0 13.5762 0.382594 10.9808 1.13719C10.1065 1.39134 9.70122 2.39812 10.1536 3.18712L13.7432 9.44644C11.1927 10.2517 10.1768 12.7324 10.8665 14.8327C11.041 15.3623 11.3119 15.8386 11.6565 16.2452C9.55881 17.4233 7.648 19.0616 5.97644 21.118C2.63509 25.2287 0.71875 30.4137 0.71875 35.3438C0.71875 45.571 8.87941 48 19 48C29.1277 48 37.2812 45.5669 37.2812 35.3438C37.2812 30.4137 35.3649 25.2287 32.0237 21.118ZM13.5153 3.39544C15.3093 3.00816 17.1473 2.8125 19 2.8125C20.8527 2.8125 22.6907 3.00816 24.4847 3.39544L21.3879 8.79562C19.8018 8.57419 18.1987 8.57428 16.6122 8.79572L13.5153 3.39544ZM14.434 12.1777C16.8542 11.3839 19.3862 11.2334 21.8478 11.7255C21.8507 11.7261 21.8537 11.7266 21.8566 11.7272C22.4303 11.8423 23.0002 11.9921 23.564 12.1771C24.301 12.42 24.7038 13.2172 24.4622 13.9528C24.2866 14.4856 23.823 14.8525 23.2776 14.912C21.8755 14.4729 20.4453 14.25 19 14.25C17.5576 14.25 16.1302 14.472 14.7308 14.9093C14.177 14.8523 13.7123 14.4827 13.5382 13.9541C13.2962 13.2172 13.699 12.4199 14.434 12.1777ZM19 45.2063C8.01288 45.2063 3.53125 42.3356 3.53125 35.3438C3.53125 31.1117 5.26122 26.4569 8.15875 22.8921C11.2145 19.1328 15.0647 17.0625 19 17.0625C23.3318 17.0625 27.1207 19.5452 29.8413 22.8921C32.7388 26.4569 34.4688 31.1117 34.4688 35.3438C34.4688 42.3356 29.9871 45.2063 19 45.2063Z" fill="white"/>
</svg>
