<svg width="38" height="48" viewBox="0 0 38 48" fill="none" xmlns="http://www.w3.org/2000/svg">
<path d="M30.1047 31.1684C30.0666 31.1643 24.5412 31.3273 23.7197 25.4062C24.6326 24.7693 25.4739 23.9424 26.2151 22.9391C27.6569 20.9873 28.586 18.5387 28.9169 15.8902C29.0307 15.7873 29.1248 15.6593 29.1882 15.5085C29.7869 14.0821 30.0906 12.559 30.0906 10.9814C30.0906 4.92628 25.523 0 19.9083 0C18.4399 0 17.0153 0.33825 15.6698 1.00622C15.1565 1.04541 14.6535 1.13569 14.1712 1.275C11.8652 1.94128 9.98871 3.651 8.88725 6.08944C7.81793 8.457 7.60718 11.2441 8.29399 13.9374C8.43912 14.5064 8.62362 15.0655 8.84243 15.5997C8.90168 15.7442 8.98999 15.8675 9.09603 15.9689C9.63209 20.1028 11.5991 23.528 14.2811 25.398C13.457 31.3291 7.93362 31.1645 7.89556 31.1686C3.92224 31.3034 0.730713 34.5756 0.730713 38.5811V46.9193C0.730713 47.5163 1.21456 48.0001 1.81146 48.0001H11.3019H26.6982H36.1887C36.7856 48.0001 37.2696 47.5163 37.2696 46.9193V38.5811C37.2695 34.5754 34.0782 31.3031 30.1047 31.1684ZM14.7713 3.35166C15.1657 3.23766 15.5822 3.17006 16.0093 3.15084C16.1679 3.14372 16.3228 3.10181 16.4634 3.02794C17.5575 2.45306 18.7167 2.16159 19.9084 2.16159C24.331 2.16159 27.9291 6.11812 27.9291 10.9814C27.9291 11.1274 27.925 11.2726 27.9186 11.4172C27.0608 10.5461 25.8689 10.0047 24.5528 10.0047H17.1867C16.7485 10.0047 16.3325 9.86709 15.9837 9.60666C15.6858 9.38437 15.4556 9.08559 15.318 8.74266C15.105 8.21222 14.5798 7.88044 14.0082 7.91634C13.4344 7.95291 12.9516 8.35134 12.8067 8.90812C12.3798 10.5484 11.5287 12.0592 10.3609 13.2845C9.27434 8.81269 11.2353 4.37325 14.7713 3.35166ZM13.831 22.0444C12.4246 20.3263 11.5036 18.0063 11.2117 15.4663C12.5755 14.2508 13.6536 12.7383 14.3555 11.0605C14.462 11.1588 14.5738 11.2517 14.6907 11.339C15.4159 11.8802 16.279 12.1664 17.1868 12.1664H24.5529C25.5951 12.1664 26.4934 12.7915 26.8943 13.6862C26.8942 13.6939 26.8931 13.7012 26.8931 13.7089C26.8931 19.8099 23.3531 24.7735 19.0017 24.7735C17.108 24.7736 15.2715 23.8043 13.831 22.0444ZM16.3143 26.4593C17.1711 26.7694 18.0723 26.9352 19.0017 26.9352C19.9238 26.9352 20.8246 26.7747 21.687 26.4651C22.0827 28.5267 23.229 30.3236 24.8302 31.5607L19.155 39.6427C19.118 39.6954 19.0665 39.7222 19.002 39.7222C18.9376 39.7222 18.8862 39.6953 18.8492 39.6427L13.1727 31.5589C14.7739 30.3204 15.9198 28.5222 16.3143 26.4593ZM35.1079 45.8384H26.6982H11.3019H2.89221V38.5809C2.89221 35.682 5.25068 33.3235 8.14962 33.3235C8.18899 33.3235 9.92815 33.2812 11.3023 32.6568L17.0801 40.8848C17.5192 41.5103 18.2377 41.8838 19.0019 41.8838C19.0019 41.8838 19.0019 41.8838 19.002 41.8838C19.7662 41.8838 20.4848 41.5103 20.9239 40.8848L26.7006 32.6581C28.2678 33.3236 29.8112 33.3236 29.8506 33.3236C32.7495 33.3236 35.1079 35.6821 35.1079 38.581V45.8384Z" fill="white"/>
</svg>
