<svg width="24" height="24" viewBox="0 0 24 24" fill="none" xmlns="http://www.w3.org/2000/svg">
<path fill-rule="evenodd" clip-rule="evenodd" d="M5.52691 2.25005L5.46154 2.25002C5.07852 2.24982 4.7763 2.24965 4.47845 2.31618C3.39448 2.55831 2.48427 3.56164 2.34855 4.66401C2.31132 4.96642 2.33679 5.22628 2.36848 5.54952L2.37306 5.5963C2.6306 8.23596 3.29005 10.6116 4.32976 12.6809C5.87438 15.755 8.24492 18.1256 11.3191 19.6702C13.3883 20.7099 15.764 21.3694 18.4037 21.6269L18.4505 21.6315L18.4505 21.6315C18.7737 21.6632 19.0336 21.6886 19.336 21.6514C20.4383 21.5157 21.4417 20.6055 21.6838 19.5215C21.7503 19.2237 21.7501 18.9214 21.7499 18.5384L21.7499 18.4731L21.7499 18.4129C21.7501 18.0807 21.7502 17.8224 21.7081 17.5837C21.5494 16.6843 20.9545 15.9223 20.1204 15.5502C19.899 15.4515 19.6484 15.3889 19.3261 15.3085L19.3261 15.3085L19.2677 15.2939L17.6132 14.8803L17.5771 14.8713L17.577 14.8712C17.0168 14.7312 16.5413 14.6123 16.1384 14.5551C15.7095 14.4942 15.2998 14.4924 14.8792 14.6294C14.4587 14.7663 14.1285 15.0089 13.8177 15.3106C13.5257 15.594 13.2113 15.9701 12.8409 16.4132L12.817 16.4418L11.4691 18.054C9.10973 16.7507 7.24925 14.8902 5.94594 12.5308L7.55817 11.183L7.58678 11.1591C8.02987 10.7886 8.40593 10.4743 8.68934 10.1823C8.99105 9.87142 9.23371 9.54125 9.37061 9.12073C9.50752 8.70021 9.50576 8.29046 9.44488 7.86157C9.3877 7.4587 9.26881 6.98319 9.12872 6.42293L9.12872 6.42291L9.11967 6.38672L8.70605 4.73225L8.69147 4.67384L8.69146 4.67383C8.61105 4.35158 8.54851 4.10093 8.44975 3.87958C8.07763 3.04551 7.31569 2.45061 6.41628 2.29189C6.17758 2.24977 5.91925 2.24988 5.58711 2.25003L5.52691 2.25005Z" fill="white"/>
</svg>
